<svg xmlns="http://www.w3.org/2000/svg" version="1.1" xmlns:xlink="http://www.w3.org/1999/xlink" xmlns:svgjs="http://svgjs.dev/svgjs" viewBox="0 0 800 800"><defs><filter id="ssspot-filter" x="-20%" y="-20%" width="140%" height="140%" filterUnits="objectBoundingBox" primitiveUnits="userSpaceOnUse" color-interpolation-filters="sRGB">
	<feTurbulence type="turbulence" baseFrequency="0.022 0.218" numOctaves="2" seed="22" stitchTiles="stitch" x="0%" y="0%" width="100%" height="100%" result="turbulence"></feTurbulence>
	<feGaussianBlur stdDeviation="0 3" x="0%" y="0%" width="100%" height="100%" in="turbulence" edgeMode="duplicate" result="blur"></feGaussianBlur>
	<feDisplacementMap in="SourceGraphic" in2="blur" scale="32" xChannelSelector="R" yChannelSelector="B" x="0%" y="0%" width="100%" height="100%" result="displacementMap"></feDisplacementMap>
</filter></defs><rect width="100%" height="100%" fill="hsl(290, 35%, 82%)"></rect><g fill="hsl(272, 99%, 50%)" filter="url(#ssspot-filter)"><circle r="4.511541725514488" cx="268.87399356978995" cy="782.3908120395491" opacity="0.38113470711276265"></circle><circle r="6.29710831965555" cx="429.871092759359" cy="256.3641191969161" opacity="0.8029314483610427"></circle><circle r="4.1715535919471725" cx="142.56840146179775" cy="451.85864707235976" opacity="0.8674722767948134"></circle><circle r="4.368656296837984" cx="53.691293566398194" cy="63.47592913696831" opacity="0.8725072160168142"></circle><circle r="6.077064916473724" cx="225.0268871922961" cy="15.209912203141501" opacity="0.1565260500809928"></circle><circle r="8.258542893074036" cx="318.3569653155032" cy="160.2258955170741" opacity="0.2539703836815094"></circle><circle r="4.566920813057758" cx="727.9336034918132" cy="673.1797745852945" opacity="0.7998227295475728"></circle><circle r="5.598024571641121" cx="102.85522481788014" cy="402.52576684787107" opacity="0.35176972776049553"></circle><circle r="11.390510524926203" cx="551.972957501336" cy="303.2106831350783" opacity="0.8415344435465737"></circle><circle r="8.791788326140836" cx="603.2738442412609" cy="274.46604937447006" opacity="0.7011597388126889"></circle><circle r="7.84958327039055" cx="449.095680825372" cy="328.91875721231406" opacity="0.24119372424181088"></circle><circle r="5.205705392188998" cx="262.1854885434995" cy="348.71288382335024" opacity="0.6418703144062134"></circle><circle r="8.780217415050418" cx="95.46899400649198" cy="230.07560944925177" opacity="0.8588343267270387"></circle><circle r="6.058606876267697" cx="316.5637087143441" cy="439.1682623062349" opacity="0.7541599274652658"></circle><circle r="7.676135250286638" cx="451.6573191783191" cy="723.6353135794171" opacity="0.7241870690034535"></circle><circle r="5.123905462009939" cx="538.8137870432116" cy="119.2497916863095" opacity="0.5986968243838826"></circle><circle r="3.473445184748605" cx="329.7668912254043" cy="39.54989087169109" opacity="0.6295662166103032"></circle><circle r="6.434734032181348" cx="494.56995200176186" cy="243.43542694600225" opacity="0.2222813505994976"></circle><circle r="5.039938126873278" cx="115.23562724699791" cy="370.82792487610317" opacity="0.78986064027634"></circle><circle r="6.856675206548859" cx="300.7566627068345" cy="569.7441942826595" opacity="0.25366137099822367"></circle><circle r="7.26529986127806" cx="257.08042757682296" cy="185.61123572594994" opacity="0.8035627152343379"></circle><circle r="9.251587408768332" cx="664.3431016945772" cy="446.1287536727684" opacity="0.37255291934541757"></circle><circle r="8.042692576449104" cx="637.8787139100382" cy="782.0272504728363" opacity="0.51374135332404"></circle><circle r="8.534140790195979" cx="489.7407184627222" cy="422.4653383008771" opacity="0.15863570205112765"></circle><circle r="3.749352199855972" cx="706.8061591505464" cy="689.7322388548163" opacity="0.19157800266854727"></circle><circle r="9.293263209711945" cx="178.68226562763317" cy="80.84404529453353" opacity="0.22025287763606313"></circle><circle r="3.68889781159278" cx="249.55903228689115" cy="225.83232749956306" opacity="0.1687514467005113"></circle><circle r="5.834837925652749" cx="467.66346577198954" cy="272.7120144030138" opacity="0.8125316479290995"></circle><circle r="8.163880352379259" cx="418.4213205462974" cy="95.45587480114858" opacity="0.243278098716581"></circle><circle r="7.756389947335869" cx="185.11328229303473" cy="263.18050014405554" opacity="0.9202846420887731"></circle><circle r="8.423336786864372" cx="736.634854285673" cy="780.7609806049779" opacity="0.8317335283121038"></circle><circle r="6.9743092294771545" cx="63.10572169446312" cy="190.29017449706703" opacity="0.46310012421627045"></circle><circle r="5.281688108941433" cx="206.13751042960004" cy="37.841817085682706" opacity="0.5481500287785537"></circle><circle r="9.576661790966206" cx="539.2702938200918" cy="439.6717305463901" opacity="0.22469770310548226"></circle><circle r="5.807566939940404" cx="783.4632630011607" cy="668.9950908227673" opacity="0.6810015390188359"></circle><circle r="9.671641885488356" cx="259.8325179192808" cy="544.8082512903089" opacity="0.48995506163154745"></circle><circle r="5.046400396055487" cx="96.33982140971438" cy="21.804670731405505" opacity="0.5355922231750406"></circle><circle r="7.283158832653038" cx="183.73925841028603" cy="438.58389337773576" opacity="0.6215000256158212"></circle><circle r="6.605752717994344" cx="574.2372462210595" cy="403.91520010852366" opacity="0.3760198032389016"></circle><circle r="6.160316588173292" cx="190.28528089463006" cy="321.2270890803499" opacity="0.9010118716259921"></circle><circle r="10.889474327910989" cx="139.0346261358743" cy="770.9813835666758" opacity="0.36981135345684035"></circle><circle r="6.2781342461650675" cx="307.64375223976435" cy="727.9185023407675" opacity="0.6492403287705218"></circle><circle r="9.676446225284975" cx="774.7559141045484" cy="238.172140439629" opacity="0.9819731590067711"></circle><circle r="8.45985572177588" cx="396.9089723912139" cy="326.9644860702464" opacity="0.10056796261020176"></circle><circle r="7.228408564139139" cx="625.1345785002753" cy="371.7254151541625" opacity="0.6898857061746162"></circle><circle r="9.965046340140674" cx="357.0366211012244" cy="486.12789983239566" opacity="0.6394839232841616"></circle><circle r="9.252231155543411" cx="411.1578480529656" cy="715.5889846136037" opacity="0.30496624120026106"></circle><circle r="8.425710477700985" cx="514.4533334335551" cy="347.19791497706" opacity="0.9747722335731721"></circle><circle r="5.5150200852378415" cx="436.2489705517056" cy="548.4662852367688" opacity="0.8191805598111329"></circle><circle r="8.221138297127794" cx="130.1367466225014" cy="105.69871467240806" opacity="0.6181981051456887"></circle><circle r="4.219474434744198" cx="365.75611637745845" cy="55.884536567797916" opacity="0.18665094013646097"></circle><circle r="6.076154187264958" cx="532.0684709613904" cy="41.21817038655496" opacity="0.13735973199987467"></circle><circle r="9.388333844324332" cx="639.7558829699148" cy="75.31370976204217" opacity="0.6344328657669006"></circle><circle r="6.60845203052155" cx="210.76656765954428" cy="465.224645461428" opacity="0.7752201854396514"></circle><circle r="7.61885462269036" cx="771.4562223353064" cy="174.8185104885432" opacity="0.557963872660876"></circle><circle r="6.952356902030629" cx="351.529148362184" cy="555.0470092172869" opacity="0.6642822946793618"></circle><circle r="9.372586655875235" cx="684.0773197981192" cy="361.5549155372627" opacity="0.21992420349360692"></circle><circle r="5.163029475733792" cx="238.2014302358097" cy="681.213472898294" opacity="0.5808834606425842"></circle><circle r="8.27760132800807" cx="344.72881408757746" cy="286.0405779751438" opacity="0.8392457936977311"></circle><circle r="10.00770094277837" cx="769.722112717469" cy="614.2561193555805" opacity="0.7995105600004503"></circle><circle r="5.120471515975232" cx="174.04204024317121" cy="405.5589510285715" opacity="0.7654146122233983"></circle><circle r="5.952613868917899" cx="21.271750275093776" cy="783.2926525522885" opacity="0.6998030429429007"></circle><circle r="8.417834556116684" cx="344.5837781272281" cy="404.2302664114072" opacity="0.30208822085988163"></circle><circle r="5.452172798095068" cx="98.648873124127" cy="450.0507263992502" opacity="0.6381114227884875"></circle><circle r="6.311065508854352" cx="785.7220374397023" cy="56.19672953204736" opacity="0.7824660184014435"></circle><circle r="8.224482601534458" cx="726.5348886185114" cy="193.4875532650558" opacity="0.6795423307250843"></circle><circle r="7.663237842995748" cx="386.09518487719026" cy="288.09808823505875" opacity="0.4109501274744286"></circle><circle r="8.44517147779106" cx="476.90740801276587" cy="767.3461942496069" opacity="0.5833530876182015"></circle><circle r="4.805437026227988" cx="525.9814224432024" cy="630.8749993386177" opacity="0.6115758368979167"></circle><circle r="10.914881508310316" cx="394.065384090084" cy="238.429853115506" opacity="0.764621096451449"></circle><circle r="9.598749414857275" cx="384.63597079792453" cy="687.2548591838529" opacity="0.8100165673519921"></circle><circle r="6.101070607718505" cx="167.64150367010805" cy="349.91418315163844" opacity="0.16532844697163115"></circle><circle r="4.656656005054199" cx="286.3380773729692" cy="290.5159243067401" opacity="0.846337836493353"></circle><circle r="6.237303513527586" cx="315.46282131564976" cy="322.4210890707466" opacity="0.7454929583916334"></circle><circle r="9.971330490636323" cx="441.525842803857" cy="677.7932392204674" opacity="0.3027373719162678"></circle><circle r="5.3116329828372315" cx="168.57475149572699" cy="469.46932502644376" opacity="0.4747054544277639"></circle><circle r="8.143635208609743" cx="209.17066233655183" cy="229.3151230861612" opacity="0.7266182879150977"></circle><circle r="5.113107607258387" cx="459.25205216121583" cy="610.7885756107944" opacity="0.1851607917994322"></circle><circle r="6.026570885703217" cx="274.9844507827168" cy="503.30518384914967" opacity="0.5016186672497953"></circle><circle r="4.347095572751956" cx="626.7189354721424" cy="620.636925557609" opacity="0.19466516737567205"></circle><circle r="6.541123542827929" cx="384.0999923693901" cy="363.55964915878616" opacity="0.2527363782626024"></circle><circle r="6.552552776374284" cx="780.2996583514474" cy="422.4845914927994" opacity="0.7226387509730415"></circle><circle r="6.64700641833568" cx="362.3172346171461" cy="157.281450189157" opacity="0.2862438582285039"></circle><circle r="10.399168520631969" cx="266.3781011766314" cy="419.01617880355764" opacity="0.18035984015265377"></circle><circle r="5.946425267037475" cx="348.31904579667037" cy="599.0685073361426" opacity="0.2262966181865707"></circle><circle r="5.6873706589602095" cx="492.63492478436336" cy="618.2128021248631" opacity="0.9423326086138001"></circle><circle r="9.052501874521994" cx="150.0893796219422" cy="639.5228616022845" opacity="0.5141060534164624"></circle><circle r="6.529706217194799" cx="616.5863533310377" cy="42.15286697318285" opacity="0.1551579269459222"></circle><circle r="9.855375693050057" cx="693.9193385115015" cy="410.36279519436357" opacity="0.16275589452158434"></circle><circle r="8.035841980953665" cx="95.731404719232" cy="653.1240731608228" opacity="0.24649605805954822"></circle><circle r="5.499827571030909" cx="213.50428960307553" cy="339.2769211701211" opacity="0.3459373905884281"></circle><circle r="6.994438966308885" cx="48.14753945301284" cy="122.46703009333608" opacity="0.21930985041106094"></circle><circle r="6.627071888275943" cx="373.7083648632443" cy="518.3768401539263" opacity="0.8319747770549204"></circle><circle r="5.616289431590642" cx="278.6186470845657" cy="462.7899802304728" opacity="0.5710035315163473"></circle><circle r="6.330912804973538" cx="16.567154929508074" cy="111.06081246105317" opacity="0.6293735666061517"></circle><circle r="5.6641565124856665" cx="137.15510759126056" cy="26.92611882175539" opacity="0.8623816629804898"></circle><circle r="7.052396169624176" cx="738.7462344084812" cy="490.8757169520169" opacity="0.9757076778821465"></circle><circle r="8.485777750844546" cx="656.4059181407562" cy="265.0129370289928" opacity="0.820051158920225"></circle><circle r="4.9105207353702305" cx="595.6489421456992" cy="336.1651222688873" opacity="0.7821448507277691"></circle><circle r="6.875456988865745" cx="144.3962244468062" cy="383.6329542255584" opacity="0.3010274483675891"></circle><circle r="11.75317837744833" cx="121.90582614197824" cy="165.07850568993592" opacity="0.8205564666126083"></circle><circle r="7.130051669344109" cx="419.92681171970287" cy="580.2423239254312" opacity="0.4935357429477505"></circle><circle r="10.251759714833417" cx="191.52829229631303" cy="772.8598522613628" opacity="0.4008093296732108"></circle><circle r="8.192357730666703" cx="709.7657670335986" cy="612.8932246018461" opacity="0.13580661742289474"></circle><circle r="8.475590515257187" cx="563.2119521411189" cy="357.1465475665654" opacity="0.14432366347583866"></circle><circle r="8.089429596231433" cx="506.2183395489238" cy="98.49411873838541" opacity="0.9336957508803199"></circle><circle r="9.517939884807305" cx="66.8869223974488" cy="405.83301669327415" opacity="0.2706118521855839"></circle><circle r="7.30090172309069" cx="512.8090742950405" cy="148.26685610165273" opacity="0.5047769830391832"></circle><circle r="7.3596695757378185" cx="677.2338853776273" cy="116.7633500616567" opacity="0.6309400613603784"></circle><circle r="4.7120103184421565" cx="783.1800699542854" cy="340.52868164007236" opacity="0.5010287947296662"></circle><circle r="2.9825555411681988" cx="238.25628788592167" cy="206.28276950199492" opacity="0.5635963695368473"></circle><circle r="5.070629239562681" cx="611.2458310387234" cy="642.8818371711736" opacity="0.9709624458855254"></circle><circle r="7.5386857085889085" cx="166.79310239911038" cy="30.057437422060048" opacity="0.17819818726721864"></circle><circle r="4.797306627060814" cx="592.1031753746771" cy="159.38819342394976" opacity="0.4857496357957074"></circle><circle r="5.837883452110301" cx="200.54365479793717" cy="497.6151052742313" opacity="0.9975295032564069"></circle><circle r="12.668058480296645" cx="129.11871152868483" cy="584.0579961475971" opacity="0.16050028528138216"></circle><circle r="4.391407564287271" cx="425.8620909510121" cy="15.67657083537487" opacity="0.870771979020778"></circle><circle r="5.131249993754775" cx="15.104225140660754" cy="749.3918056645275" opacity="0.1164927984281739"></circle><circle r="8.31109243785015" cx="256.9836136058311" cy="635.5448107641505" opacity="0.3498485224392111"></circle><circle r="6.894913070174001" cx="691.9191529245606" cy="481.6336928951101" opacity="0.29832014216689007"></circle><circle r="6.257448873534624" cx="242.32574249277332" cy="460.28818772200685" opacity="0.2528176769615189"></circle><circle r="6.4056482178885386" cx="113.37034658125847" cy="60.151384190430264" opacity="0.23895718128109172"></circle><circle r="7.803135478983249" cx="663.067700893546" cy="33.75597076065984" opacity="0.9837541327707049"></circle><circle r="15.575450100591912" cx="30.226136676831707" cy="537.0369336174706" opacity="0.45822882784179275"></circle><circle r="7.728178389859234" cx="304.63864682153127" cy="259.2434141366792" opacity="0.5930762996890885"></circle><circle r="10.584966347595735" cx="22.198437188657472" cy="404.34590233933204" opacity="0.6884126530379623"></circle><circle r="7.413030230150459" cx="485.13036960355555" cy="713.9696596022851" opacity="0.37603152814436924"></circle><circle r="7.488463207992552" cx="773.9113919458372" cy="15.781639164824666" opacity="0.42113992942034995"></circle><circle r="5.213372024923288" cx="650.934933157022" cy="604.0906012121071" opacity="0.15184049856158688"></circle><circle r="5.461294838822128" cx="193.72361720328215" cy="372.3376211821347" opacity="0.13118164231801352"></circle><circle r="6.306404161349385" cx="467.89932791303573" cy="74.15360619860644" opacity="0.3487982562533193"></circle><circle r="5.454528611946543" cx="87.3967923400195" cy="358.60382977054803" opacity="0.9836379273666495"></circle><circle r="8.36970053174722" cx="321.4845169355232" cy="481.29649354422884" opacity="0.19188354666168878"></circle><circle r="9.491523983119606" cx="536.0459787809351" cy="548.6057021227642" opacity="0.7413029948513824"></circle><circle r="9.309812604186506" cx="20.69530988340702" cy="475.64890770935136" opacity="0.39178019900042693"></circle><circle r="7.505887434671736" cx="393.3192726839318" cy="66.03174038907024" opacity="0.8073135634205624"></circle><circle r="5.969037270100916" cx="238.5488479747729" cy="580.6558457354187" opacity="0.34006644058286795"></circle><circle r="9.109815334168868" cx="147.22166521610046" cy="539.1929855530384" opacity="0.9501424368986271"></circle><circle r="6.977926105227871" cx="587.1744942460745" cy="626.3590016318952" opacity="0.9911461509284829"></circle><circle r="4.65707932024357" cx="234.86552611710187" cy="354.01187534904284" opacity="0.28913334044414185"></circle><circle r="5.68578331474319" cx="467.4956727339144" cy="384.0351699955868" opacity="0.6397609792091393"></circle><circle r="9.873311542583942" cx="216.5841895568016" cy="624.9367538212509" opacity="0.9487798752976145"></circle><circle r="5.991394948359957" cx="472.11529213565115" cy="199.27619495012624" opacity="0.692561989144734"></circle><circle r="6.411106870064484" cx="283.3133188684035" cy="25.839770840629427" opacity="0.9085401725273866"></circle><circle r="9.252749631464606" cx="394.9776958314578" cy="186.92655348377593" opacity="0.5313658929585603"></circle><circle r="7.243025862616662" cx="621.8368916667445" cy="182.11225272345226" opacity="0.9356791036980019"></circle><circle r="4.277880517768846" cx="282.9434121120268" cy="332.15556344850955" opacity="0.7388015216868795"></circle><circle r="7.022823155510544" cx="637.4043416784766" cy="122.8150803836082" opacity="0.8297892545702682"></circle><circle r="3.943702026194067" cx="705.1084787854636" cy="51.39707837964591" opacity="0.9335819122738762"></circle><circle r="3.9376201084766924" cx="13.06370901488501" cy="22.664614150892465" opacity="0.7193247396849977"></circle><circle r="9.755797030876685" cx="583.4361754565452" cy="775.5537954380419" opacity="0.2782152610204913"></circle><circle r="8.376261056989406" cx="249.67842965318144" cy="312.9117168341079" opacity="0.4395842453132067"></circle><circle r="2.9577532186626825" cx="493.79776153808797" cy="532.6494374927463" opacity="0.4790611677198471"></circle><circle r="11.086203755385693" cx="32.555310490847745" cy="723.3356833525588" opacity="0.5912010293499067"></circle><circle r="7.22291851588253" cx="495.6916472293387" cy="305.8389384159383" opacity="0.3782130667763389"></circle><circle r="10.281012921420405" cx="74.02447547380092" cy="492.4201425170646" opacity="0.6014191614350426"></circle><circle r="7.191631903905573" cx="234.19711091045843" cy="508.18519859902" opacity="0.6545145410858091"></circle><circle r="5.782268299762768" cx="464.5732182375263" cy="539.3723921962373" opacity="0.4151935447919465"></circle><circle r="7.576334731931101" cx="257.67971107419766" cy="142.9235592273534" opacity="0.8633065012236557"></circle><circle r="3.314915036059663" cx="287.4893744520389" cy="371.90578886631624" opacity="0.4764755060128629"></circle><circle r="7.432327873031513" cx="328.3902337973876" cy="121.84973523368905" opacity="0.45867987560901957"></circle><circle r="6.190450624702391" cx="36.20489544605972" cy="32.70728024596446" opacity="0.5057313977899128"></circle><circle r="13.385876833319763" cx="78.5803954382693" cy="592.4857927801088" opacity="0.3194875725698678"></circle><circle r="8.173294545990746" cx="431.21986542175995" cy="292.6615694284297" opacity="0.7690050990275881"></circle><circle r="4.902581064667968" cx="402.7559606383775" cy="542.7127329495589" opacity="0.24332597031355988"></circle><circle r="7.7174155270133316" cx="602.8338286839927" cy="94.60376752124164" opacity="0.26579480703596703"></circle><circle r="5.843109985405826" cx="349.39013010210573" cy="235.2229807006371" opacity="0.3083005732066618"></circle><circle r="4.715771281094959" cx="551.7606187880876" cy="184.23527921610554" opacity="0.7628310133439389"></circle><circle r="10.720428729466555" cx="356.4206857444395" cy="723.295141584886" opacity="0.8261466629255764"></circle><circle r="10.482201582719256" cx="128.09202296738692" cy="711.4374136917938" opacity="0.1998384693499975"></circle><circle r="5.040328411160883" cx="682.2672392660417" cy="718.1325403963683" opacity="0.24905121557111418"></circle><circle r="7.581151675702932" cx="731.2369646016824" cy="736.4553005693283" opacity="0.8491316284490408"></circle><circle r="4.054981721518359" cx="225.19373029116508" cy="274.007735015155" opacity="0.4172621346145212"></circle><circle r="6.77649812579679" cx="555.905436367534" cy="488.82972972686065" opacity="0.2800050138961847"></circle><circle r="5.772017335542443" cx="182.61492675641077" cy="598.6509010290098" opacity="0.18863560387719658"></circle><circle r="5.059149380531131" cx="415.8226522155117" cy="753.3559786840959" opacity="0.6220772463267744"></circle><circle r="6.5854718821047005" cx="678.798498627186" cy="217.5057491194039" opacity="0.967717614044643"></circle><circle r="7.346256291136751" cx="251.09871830365782" cy="750.2122705248634" opacity="0.2508442877279266"></circle><circle r="5.268024676482845" cx="342.58871613418273" cy="196.36814978390302" opacity="0.5954092198406947"></circle><circle r="6.840944363938099" cx="376.01100455280454" cy="124.08154994489439" opacity="0.3540813305330224"></circle><circle r="7.0243168082593535" cx="675.2606638149973" cy="72.18249124830436" opacity="0.29418097502951035"></circle><circle r="5.701113972815594" cx="385.87927919794885" cy="563.6982867620474" opacity="0.4606115535448918"></circle><circle r="4.073247823850174" cx="462.9887351657829" cy="580.1579491823622" opacity="0.5284580180675118"></circle><circle r="5.520043248005932" cx="589.692655370986" cy="460.10914813347244" opacity="0.8896707993847918"></circle><circle r="10.522562779160653" cx="20.38543738302376" cy="172.52457094252526" opacity="0.48289946688475305"></circle><circle r="4.63568459166304" cx="725.184275726332" cy="127.81473656093574" opacity="0.1438358073248268"></circle><circle r="6.2828777675667284" cx="20.231847483320067" cy="332.7314248056501" opacity="0.599500865944094"></circle><circle r="4.5919266993697665" cx="363.91723554245345" cy="91.68318266934935" opacity="0.9775867551553094"></circle><circle r="6.958035027602319" cx="742.7056522882046" cy="31.34854409938856" opacity="0.8978660411590159"></circle><circle r="7.720540650240339" cx="572.3719421086901" cy="734.9216039785" opacity="0.47710529737967267"></circle><circle r="8.118238082502083" cx="737.5758358580119" cy="423.42422853541996" opacity="0.8678568500224848"></circle><circle r="8.83245463199776" cx="669.8201929162234" cy="577.9767899023678" opacity="0.4266186427021901"></circle><circle r="5.135117241488928" cx="609.7196416003541" cy="220.53232791034" opacity="0.3619864706206616"></circle><circle r="4.10307181450139" cx="257.009887440026" cy="274.23544666385436" opacity="0.5265188093542394"></circle><circle r="5.047226168432154" cx="493.96762626734693" cy="565.4753405300066" opacity="0.21428405040520265"></circle><circle r="5.519531975447155" cx="746.3876629521623" cy="542.936358048981" opacity="0.908136164333667"></circle><circle r="11.506782521993536" cx="77.66632222347033" cy="712.7708850109617" opacity="0.7086651687327652"></circle><circle r="10.201304346001535" cx="544.0903498582347" cy="675.767183173193" opacity="0.2795400010074218"></circle><circle r="4.749358841147502" cx="252.7429555225554" cy="24.248592735614064" opacity="0.3483208750321408"></circle><circle r="6.182558220877768" cx="547.4560644493134" cy="261.3772119240608" opacity="0.8779587355858676"></circle><circle r="7.323645586360456" cx="16.564718281094176" cy="71.34324363769822" opacity="0.11726822680205912"></circle><circle r="6.038470651045719" cx="432.24498890093076" cy="785.4195571579867" opacity="0.9366983226062175"></circle><circle r="8.47654565806933" cx="722.4286762351682" cy="287.8333174760258" opacity="0.581777005774737"></circle><circle r="4.477962053630194" cx="506.28840065664065" cy="26.575722540579303" opacity="0.18986369124261293"></circle><circle r="8.387684325068374" cx="424.3449500036193" cy="49.979628245232654" opacity="0.5339149811288598"></circle><circle r="10.201749678731066" cx="79.56708026325772" cy="87.81429641846734" opacity="0.5691956113445232"></circle><circle r="4.844876031806062" cx="416.12865218337265" cy="520.1925827036249" opacity="0.23787524120294098"></circle><circle r="11.239119518481598" cx="258.03936667051335" cy="72.83594711528062" opacity="0.9776882213390904"></circle><circle r="11.544104260681692" cx="32.94005602141745" cy="668.2958556336205" opacity="0.24035804027378843"></circle><circle r="9.411142011539312" cx="577.1782727839868" cy="22.419779031415864" opacity="0.7424108380054606"></circle><circle r="5.960941297200226" cx="675.6677901648685" cy="318.2191575215392" opacity="0.3406288432158254"></circle><circle r="4.775350029811225" cx="506.0804681909018" cy="655.9756167865052" opacity="0.6047211013380909"></circle><circle r="4.509743126991509" cx="297.612794269343" cy="65.8615467415227" opacity="0.9471357130363108"></circle><circle r="7.990313123919959" cx="125.47067912624873" cy="493.254852115727" opacity="0.6996278181248292"></circle><circle r="9.40382821871951" cx="467.8443281990021" cy="26.142986107199437" opacity="0.6518703561882299"></circle><circle r="7.125924880265396" cx="462.61698117909157" cy="646.9206266421779" opacity="0.1969443457181848"></circle><circle r="8.01930652065557" cx="419.3273172949604" cy="137.69087711269583" opacity="0.5907171205927326"></circle><circle r="11.786576074410682" cx="632.4702971943541" cy="484.3248534665954" opacity="0.39044602709122966"></circle><circle r="2.8694327261159467" cx="643.0213042180798" cy="9.811282543235743" opacity="0.9613078622403708"></circle><circle r="9.044583374434602" cx="528.1674693657518" cy="219.56774851518082" opacity="0.881225694452272"></circle><circle r="9.485060232717963" cx="53.402274414907275" cy="448.8312583688803" opacity="0.5982501468355073"></circle><circle r="9.107096596505865" cx="635.6992987656307" cy="535.0546615042266" opacity="0.12759016281155586"></circle><circle r="6.9425255775285155" cx="639.2427186695949" cy="655.26328886133" opacity="0.4864474654792338"></circle><circle r="5.0177158430681805" cx="406.5555798251512" cy="646.3021720313908" opacity="0.2597040018283838"></circle><circle r="9.075056942271058" cx="326.4530945738227" cy="678.9212382450646" opacity="0.9546997569584696"></circle><circle r="6.151013164395202" cx="432.5758448184946" cy="369.28906587917015" opacity="0.9690137904368696"></circle><circle r="8.55768868144149" cx="629.2823531851249" cy="318.87152863487864" opacity="0.28541664262550515"></circle><circle r="10.866977309960255" cx="659.8207661215673" cy="170.7592205739315" opacity="0.7383417354486831"></circle><circle r="7.75417424401679" cx="716.4721417422264" cy="248.01814397860508" opacity="0.3356910217519413"></circle><circle r="4.873624824411841" cx="758.2800832944572" cy="124.87040218504102" opacity="0.2540589361658353"></circle><circle r="8.576645684010735" cx="61.560402060225066" cy="778.1970965781366" opacity="0.9195623582759835"></circle><circle r="8.128979166397377" cx="767.6247914162143" cy="573.528316819947" opacity="0.40471074879460334"></circle><circle r="11.256761246113813" cx="524.9777965910996" cy="774.3577350385191" opacity="0.7514353762177758"></circle><circle r="4.164114309882331" cx="294.1949319585661" cy="661.2766590614583" opacity="0.10003487856732006"></circle><circle r="6.845483443112931" cx="636.6843002387781" cy="740.3840539958718" opacity="0.9462362614451001"></circle><circle r="5.71320142542542" cx="370.4660022726094" cy="439.12650948225365" opacity="0.3299998847116691"></circle><circle r="5.723612129563255" cx="732.3402482130964" cy="91.58522569593202" opacity="0.8983710883169717"></circle><circle r="7.200216431590567" cx="216.04551601699922" cy="152.78147259042098" opacity="0.1902147071580703"></circle><circle r="3.7779690798250365" cx="703.2614200299555" cy="93.67512753164924" opacity="0.3444677776070908"></circle><circle r="5.7337000353733885" cx="182.41549777310607" cy="207.35840084958133" opacity="0.5116371631949014"></circle><circle r="4.878358043951694" cx="247.05716576520032" cy="248.7374421845552" opacity="0.9544801308455164"></circle><circle r="5.26163094165643" cx="686.6389263527833" cy="783.3463029242841" opacity="0.7853147846368467"></circle><circle r="3.9567130140893623" cx="286.98132788157875" cy="706.4446960216032" opacity="0.9006322449296099"></circle><circle r="5.922799359401607" cx="203.0324895648884" cy="665.0506318450554" opacity="0.11467095410768419"></circle><circle r="8.879573397291464" cx="129.7331373125557" cy="335.65549856710675" opacity="0.11640263165022503"></circle><circle r="9.05331693775406" cx="58.48249828636424" cy="338.1664356528408" opacity="0.9849181882380503"></circle><circle r="6.2411818814800775" cx="286.8191521256562" cy="120.17786289077496" opacity="0.9218591014842147"></circle><circle r="10.24265820227929" cx="148.2622355535677" cy="201.8024405730957" opacity="0.9349545054192749"></circle><circle r="5.518465441636456" cx="290.9676742896224" cy="183.2029886482053" opacity="0.6220626925567841"></circle><circle r="12.672948768821175" cx="31.05093313755217" cy="255.43753247922112" opacity="0.33785175530624306"></circle><circle r="7.63512660041507" cx="782.5096630556127" cy="497.36319226441464" opacity="0.44254440383803173"></circle><circle r="4.745162702273099" cx="462.54219124526827" cy="115.62631943031073" opacity="0.7100051174591916"></circle><circle r="8.473032390219359" cx="156.88490556172735" cy="302.4496026065877" opacity="0.7514187901467988"></circle><circle r="8.001256129852738" cx="758.4237146815774" cy="304.2435595236582" opacity="0.5550218561753987"></circle><circle r="3.8357775961080502" cx="733.4376388519624" cy="63.58781086076291" opacity="0.33626378898303655"></circle><circle r="4.286243457093999" cx="270.961948610551" cy="678.1649860250363" opacity="0.5976939472779196"></circle><circle r="9.707757379308733" cx="510.8420318986061" cy="473.84494072014587" opacity="0.4061352896541792"></circle><circle r="10.549808531529347" cx="586.2376065832503" cy="521.593632302106" opacity="0.36355275770060924"></circle><circle r="4.430145058976225" cx="570.858515861181" cy="87.10507013620062" opacity="0.2903136523974723"></circle><circle r="3.5513896392237245" cx="338.6106064379409" cy="64.14501008182175" opacity="0.9737314342210521"></circle><circle r="9.274089854926384" cx="372.90684758596996" cy="775.6791093094156" opacity="0.670282201167283"></circle><circle r="7.503422781221044" cx="313.0105193467736" cy="521.5958095260477" opacity="0.13000666229625088"></circle><circle r="7.669891502433276" cx="224.9988340812161" cy="101.96581503729456" opacity="0.28532695094663396"></circle><circle r="6.067849700675078" cx="472.21277891032776" cy="151.4055032444873" opacity="0.319975085610968"></circle><circle r="7.884686070884348" cx="779.8501158149866" cy="761.7199010461147" opacity="0.3699632979955395"></circle><circle r="6.889076497668247" cx="311.5662627980595" cy="387.6096577006472" opacity="0.8709363146649999"></circle><circle r="5.000157162468088" cx="392.90945271537254" cy="398.01730277226176" opacity="0.5639693517066838"></circle><circle r="4.124679825485545" cx="131.74977363957558" cy="422.158466085939" opacity="0.3827639992276033"></circle><circle r="6.510510820151346" cx="625.6210811446102" cy="698.7702334721852" opacity="0.9254442026523596"></circle><circle r="7.81124190682256" cx="762.1653501384841" cy="708.6045142084346" opacity="0.292521788763038"></circle><circle r="11.759240332681717" cx="192.0876897856042" cy="553.4129200284676" opacity="0.7069504426101749"></circle><circle r="10.739682702294546" cx="356.5372863247857" cy="646.4904079532213" opacity="0.441456558667354"></circle><circle r="5.910320296061426" cx="346.81173771767266" cy="348.0667087179259" opacity="0.5842347414214866"></circle><circle r="6.228133191037341" cx="214.50929892835967" cy="186.64762225684103" opacity="0.7420312092373087"></circle><circle r="9.815244842016025" cx="85.98231811817728" cy="136.91775544249683" opacity="0.28102091472559454"></circle><circle r="6.77090976759022" cx="691.0739944972236" cy="751.9594415104265" opacity="0.727398397854311"></circle><circle r="7.219776926511091" cx="26.96073105590686" cy="605.1913028897649" opacity="0.4912770038630404"></circle><circle r="7.7078903597915165" cx="421.27856963789776" cy="432.33352731883065" opacity="0.5148624713653833"></circle><circle r="5.504197722407136" cx="210.95217613671093" cy="298.76501142708264" opacity="0.28879394829513316"></circle><circle r="6.521980673228011" cx="519.8068249652318" cy="393.27780577991876" opacity="0.3065122183548528"></circle><circle r="7.677822075664876" cx="254.77992518351076" cy="381.16568079900946" opacity="0.2908870272743248"></circle><circle r="5.142962853761091" cx="673.4017563100628" cy="637.9268650456045" opacity="0.27634617036008224"></circle><circle r="3.914080930826872" cx="508.19847335750575" cy="509.7614352645096" opacity="0.5208838369267311"></circle><circle r="6.212891950325833" cx="700.9259460362056" cy="17.174078290013675" opacity="0.37412772890025825"></circle><circle r="3.9014617008891013" cx="558.7574928812262" cy="635.0347161976191" opacity="0.18281476905256827"></circle><circle r="7.696414709709487" cx="692.5548375497596" cy="540.9342064873654" opacity="0.31197182647037536"></circle><circle r="8.500407876596132" cx="221.25060755331214" cy="394.5365977092957" opacity="0.7038527050707708"></circle><circle r="4.644235476864833" cx="292.8097710126789" cy="223.92927861502073" opacity="0.7477591708985223"></circle><circle r="7.664845758249098" cx="205.78847992184328" cy="725.1378144161923" opacity="0.7083591024424092"></circle><circle r="8.170028393566422" cx="701.9759669628603" cy="155.63137116634124" opacity="0.9822468669103482"></circle><circle r="8.313644633330776" cx="300.57184070004934" cy="619.7858831619624" opacity="0.6794530756922448"></circle><circle r="9.227590313175739" cx="615.7513501248508" cy="429.1459637819004" opacity="0.5245110244167243"></circle><circle r="10.133674236683214" cx="401.86466489210477" cy="478.32740807916605" opacity="0.7768719129082471"></circle><circle r="2.6623363829906617" cx="123.44930568869621" cy="7.905048696219448" opacity="0.5945066378060749"></circle><circle r="7.021776972760371" cx="321.09168509004036" cy="90.11291263699742" opacity="0.3868802836466978"></circle><circle r="11.654948397336753" cx="92.2713821550664" cy="536.2332901376429" opacity="0.2830440191494482"></circle><circle r="7.939105785173508" cx="579.4386444543006" cy="698.2376951804991" opacity="0.9464363576016274"></circle><circle r="3.9359482305652094" cx="443.03326971066275" cy="502.39302797826275" opacity="0.8728943897217027"></circle><circle r="4.03329438765479" cx="369.1480269780106" cy="29.24268911804084" opacity="0.8461999914944156"></circle><circle r="4.615735729715334" cx="767.4520748712397" cy="82.8953847849969" opacity="0.39289425864239513"></circle><circle r="4.282162457096902" cx="460.8693284655058" cy="476.7884449733657" opacity="0.9782127777187001"></circle><circle r="5.321655064322838" cx="438.0628552184382" cy="217.68520263096312" opacity="0.46911134714391867"></circle><circle r="7.081489258068027" cx="571.7784099132746" cy="575.268967540213" opacity="0.3829350619347416"></circle><circle r="5.245907007599233" cx="322.1583675615677" cy="14.085321400156568" opacity="0.27309428795146806"></circle><circle r="3.3785672102183293" cx="381.1068567942994" cy="11.039875460599546" opacity="0.7570502230655035"></circle><circle r="5.3222185382177365" cx="744.0255408961365" cy="648.5831574703802" opacity="0.43002935200316206"></circle><circle r="9.907120349898797" cx="736.4477786935482" cy="362.02582090457594" opacity="0.6465631057930273"></circle><circle r="6.878423039947126" cx="585.7100066261747" cy="127.0520202260498" opacity="0.7734259931488288"></circle><circle r="7.88541592691148" cx="173.04015301092778" cy="140.69404055071317" opacity="0.32778140409718404"></circle><circle r="6.339292940694127" cx="598.4536234184494" cy="667.7081392951592" opacity="0.19337017450059543"></circle><circle r="5.708309469333233" cx="63.129671039562986" cy="19.124468810592177" opacity="0.5592985419681645"></circle><circle r="8.996474457522417" cx="505.0509804776128" cy="184.27403304048937" opacity="0.27700650721261855"></circle><circle r="6.84426476776991" cx="171.22542215319365" cy="508.81979587334774" opacity="0.6152812604617222"></circle><circle r="5.546230494970202" cx="408.47944785316696" cy="610.6811192104916" opacity="0.8872050561885833"></circle><circle r="5.3013111468996845" cx="670.8376069433564" cy="678.796402503345" opacity="0.4343425060677263"></circle><circle r="10.940004807145876" cx="167.76923993171937" cy="695.2214257602022" opacity="0.5045248260368322"></circle><circle r="3.7661838324601162" cx="495.21996157764096" cy="682.0764428646486" opacity="0.3373602662190335"></circle><circle r="10.677968857907782" cx="140.6213939932592" cy="256.9955105562644" opacity="0.9289326016473427"></circle><circle r="7.354391553331351" cx="249.85759699589084" cy="712.4078170672608" opacity="0.6035675202506763"></circle><circle r="6.032222738080291" cx="611.863582724613" cy="584.3336581101448" opacity="0.9286766201021853"></circle><circle r="9.1122780776968" cx="524.070907754537" cy="593.6618431733295" opacity="0.5424769438892645"></circle><circle r="11.22725906170772" cx="92.65888655649854" cy="292.59599328600035" opacity="0.5433664592686956"></circle><circle r="10.065552244449641" cx="323.3835237200727" cy="769.8789977328722" opacity="0.2605429223590413"></circle><circle r="11.057729844421033" cx="526.2289436086596" cy="720.4456515707767" opacity="0.35419819045742185"></circle><circle r="6.547132521175055" cx="549.6765260365005" cy="68.43361669674911" opacity="0.2537143600934094"></circle><circle r="3.656658194340933" cx="788.2006809685845" cy="124.69870715783256" opacity="0.22773566727250877"></circle><circle r="7.644876666167395" cx="569.2724593152042" cy="223.06383571970508" opacity="0.8589290050730072"></circle><circle r="7.693967102552179" cx="647.515162784673" cy="402.58712729287373" opacity="0.4121701040761713"></circle><circle r="7.963434388369555" cx="436.8996794709739" cy="173.07572931694796" opacity="0.8920268933500572"></circle><circle r="6.029772087043181" cx="96.75905439234394" cy="764.2082072495125" opacity="0.5773817108028826"></circle><circle r="6.336888564504497" cx="553.6192024332598" cy="151.1324343390363" opacity="0.17836469907855737"></circle><circle r="5.998140949172338" cx="219.50647174614554" cy="428.2364851780387" opacity="0.27081037734873203"></circle><circle r="6.986569423502896" cx="465.5118148930708" cy="442.95094464119626" opacity="0.16496688146604416"></circle></g></svg>